<svg width="398" height="372" viewBox="0 0 398 372" fill="none" xmlns="http://www.w3.org/2000/svg">
<path fill-rule="evenodd" clip-rule="evenodd" d="M244.302 5.36687C348.159 28.1923 413.619 123.249 394.026 220.158L251.208 188.77C252.707 165.406 236.047 143.725 210.811 138.178C185.575 132.632 160.305 145.098 150.481 166.632L7.66345 135.244C36.4367 40.3527 140.445 -17.4586 244.302 5.36687ZM146.347 183.025L3.52971 151.637C-16.0634 248.546 49.3966 343.602 153.254 366.428C257.111 389.253 361.119 331.442 389.892 236.55L247.075 205.162C237.251 226.697 211.981 239.163 186.745 233.617C161.508 228.07 144.849 206.389 146.347 183.025Z" fill="white" fill-opacity="0.5"/>
</svg>
